<svg width="62" height="65" viewBox="0 0 62 65" fill="none" xmlns="http://www.w3.org/2000/svg">
<path d="M48.3332 27.7427C50.0979 25.9781 50.0979 23.1167 48.3332 21.352C46.5686 19.5874 43.7072 19.5874 41.9426 21.352C39.9917 23.3042 37.5041 25.7905 35.5519 27.7427C33.7874 29.5073 33.7874 32.3687 35.5519 34.1333C37.3178 35.898 40.1781 35.898 41.9426 34.1333C43.8948 32.1812 46.3823 29.6947 48.3332 27.7427Z" stroke="#11112B" stroke-width="4" stroke-miterlimit="10" stroke-linecap="round" stroke-linejoin="round"/>
<path d="M53.1265 35.7307C54.891 33.9661 54.891 31.1047 53.1265 29.34C51.3619 27.5754 48.5005 27.5754 46.7359 29.34C45.2333 30.8425 43.445 32.6309 41.9426 34.1333C40.178 35.8979 40.178 38.7582 41.9426 40.5239C43.7071 42.2884 46.5686 42.2884 48.3331 40.5239C49.8357 39.0203 51.6239 37.2331 53.1265 35.7307Z" stroke="#11112B" stroke-width="4" stroke-miterlimit="10" stroke-linecap="round" stroke-linejoin="round"/>
<path d="M57.9179 43.7187C58.7663 42.8715 59.2419 41.7214 59.2419 40.524C59.2419 39.3253 58.7663 38.1753 57.9179 37.328C57.0708 36.4808 55.9219 36.0052 54.7232 36.0052C53.5246 36.0052 52.3757 36.4808 51.5283 37.328C50.4992 38.3561 49.3605 39.4948 48.3325 40.524C47.4852 41.3713 47.0098 42.5202 47.0098 43.7187C47.0098 44.9173 47.4852 46.0662 48.3325 46.9134C49.1797 47.7618 50.3298 48.2374 51.5283 48.2374C52.7259 48.2374 53.8759 47.7618 54.7232 46.9134C55.7513 45.8855 56.8899 44.7467 57.9179 43.7187Z" stroke="#11112B" stroke-width="4" stroke-miterlimit="10" stroke-linecap="round" stroke-linejoin="round"/>
<path d="M41.9421 21.352C41.9421 21.352 48.8897 14.4055 53.126 10.1692C53.9734 9.3208 54.449 8.1719 54.449 6.97335C54.449 5.77481 53.9734 4.6259 53.126 3.77863C52.2788 2.93123 51.1287 2.45465 49.9302 2.45465C48.7316 2.45465 47.5826 2.93123 46.7355 3.77863L22.7714 27.7427C22.7714 27.7427 21.7626 23.3742 20.6712 18.643C20.1291 16.2921 18.3531 14.4203 16.0328 13.7549C13.7136 13.0894 11.2158 13.7356 9.50992 15.4426C9.5088 15.4426 9.5088 15.4438 9.5088 15.4438L9.53594 42.5563L2.75781 49.3344L16.3141 62.8906H35.9401C37.7376 62.8906 39.4614 62.1755 40.7322 60.9046C45.6351 56.003 57.9181 43.7187 57.9181 43.7187" stroke="#11112B" stroke-width="4" stroke-miterlimit="10" stroke-linecap="round" stroke-linejoin="round"/>
<path d="M22.7715 27.7427C22.7715 27.7427 23.4154 28.3866 24.3688 29.3401C28.7803 33.7515 28.7803 40.9046 24.3688 45.316" stroke="#11112B" stroke-width="4" stroke-miterlimit="10" stroke-linecap="round" stroke-linejoin="round"/>
</svg>
