<svg width="116" height="36" viewBox="0 0 116 36" fill="none" xmlns="http://www.w3.org/2000/svg">
<g opacity="0.5" clip-path="url(#clip0_33_2863)">
<path d="M71.9482 28.1243C65.2153 33.2271 55.4563 35.9496 47.0541 35.9496C35.2728 35.9496 24.6665 31.4691 16.6425 24.0172C16.0121 23.4312 16.577 22.6326 17.3335 23.0889C25.9929 28.2695 36.7 31.3861 47.7602 31.3861C55.2193 31.3861 63.4249 29.7993 70.9697 26.5064C72.1096 26.0085 73.0627 27.2738 71.9482 28.1243Z" fill="white"/>
<path d="M74.7472 24.8314C73.8899 23.7009 69.0583 24.2973 66.8897 24.5618C66.229 24.6447 66.1281 24.0536 66.7232 23.6283C70.5713 20.8436 76.8856 21.6474 77.622 22.5808C78.3583 23.5194 77.4303 30.0276 73.8142 33.1338C73.2594 33.6109 72.7299 33.3568 72.977 32.7241C73.789 30.6395 75.6096 25.9671 74.7472 24.8314Z" fill="white"/>
<path d="M67.041 3.96912V1.26215C67.041 0.852481 67.3436 0.577637 67.7067 0.577637H79.493C79.8713 0.577637 80.1739 0.857667 80.1739 1.26215V3.58018C80.1689 3.96912 79.8511 4.47732 79.2863 5.28111L73.1787 14.2473C75.4483 14.1902 77.8439 14.5377 79.9016 15.7304C80.3656 16.0001 80.4916 16.3942 80.5269 16.7831V19.6716C80.5269 20.0657 80.1033 20.5272 79.6595 20.2887C76.0333 18.3336 71.2169 18.121 67.2074 20.3094C66.7989 20.5376 66.3702 20.0812 66.3702 19.6871V16.9439C66.3702 16.5031 66.3752 15.7511 66.8039 15.0822L73.8798 4.64845H67.7218C67.3436 4.64845 67.041 4.37361 67.041 3.96912Z" fill="white"/>
<path d="M24.0462 20.8591H20.4604C20.1174 20.8332 19.8451 20.5687 19.8199 20.2317V1.30886C19.8199 0.930304 20.1275 0.629528 20.5108 0.629528H23.8546C24.2026 0.645075 24.4799 0.919929 24.5052 1.26219V3.73579H24.5707C25.4432 1.34516 27.0823 0.230225 29.2913 0.230225C31.5356 0.230225 32.9377 1.34516 33.9464 3.73579C34.8138 1.34516 36.7858 0.230225 38.899 0.230225C40.4019 0.230225 42.046 0.868071 43.0496 2.29934C44.1844 3.89136 43.9524 6.20421 43.9524 8.23184L43.9474 20.1746C43.9474 20.5532 43.6397 20.8591 43.2564 20.8591H39.6756C39.3176 20.8332 39.0301 20.5376 39.0301 20.1746V10.1454C39.0301 9.34677 39.1007 7.35545 38.9292 6.59832C38.6619 5.32782 37.86 4.97 36.8211 4.97C35.9536 4.97 35.0458 5.56636 34.6776 6.52054C34.3095 7.47472 34.3448 9.07193 34.3448 10.1454V20.1746C34.3448 20.5532 34.0371 20.8591 33.6538 20.8591H30.073C29.7099 20.8332 29.4275 20.5376 29.4275 20.1746L29.4225 10.1454C29.4225 8.03478 29.7604 4.92851 27.2135 4.92851C24.6363 4.92851 24.7372 7.95699 24.7372 10.1454V20.1746C24.7372 20.5532 24.4295 20.8591 24.0462 20.8591Z" fill="white"/>
<path d="M90.3212 0.230225C95.6419 0.230225 98.5217 4.92851 98.5217 10.9025C98.5217 16.6742 95.3393 21.2533 90.3212 21.2533C85.0962 21.2533 82.2518 16.555 82.2518 10.7003C82.2518 4.80924 85.1315 0.230225 90.3212 0.230225ZM90.3514 4.09361C87.7087 4.09361 87.5423 7.79623 87.5423 10.1039C87.5423 12.4167 87.507 17.3536 90.3212 17.3536C93.1001 17.3536 93.2312 13.3709 93.2312 10.944C93.2312 9.34677 93.1656 7.43842 92.6966 5.92418C92.2931 4.607 91.4912 4.09361 90.3514 4.09361Z" fill="white"/>
<path d="M105.421 20.8591H101.85C101.492 20.8332 101.205 20.5376 101.205 20.1746L101.2 1.24663C101.23 0.899186 101.528 0.629528 101.891 0.629528H105.214C105.527 0.645075 105.784 0.862887 105.855 1.15847V4.05212H105.92C106.924 1.46443 108.331 0.230225 110.807 0.230225C112.416 0.230225 113.985 0.826586 114.993 2.4601C115.931 3.97434 115.931 6.52054 115.931 8.35111V20.2628C115.891 20.5947 115.594 20.8591 115.24 20.8591H111.645C111.317 20.8332 111.044 20.5843 111.009 20.2628V9.98462C111.009 7.91551 111.241 4.88703 108.765 4.88703C107.892 4.88703 107.09 5.48858 106.692 6.40127C106.188 7.55769 106.122 8.70893 106.122 9.98462V20.1746C106.117 20.5532 105.804 20.8591 105.421 20.8591Z" fill="white"/>
<path d="M57.6452 11.8202V11.0216C55.0529 11.0216 52.3143 11.5921 52.3143 14.7346C52.3143 16.3267 53.1162 17.4053 54.493 17.4053C55.5017 17.4053 56.4045 16.7674 56.9744 15.7303C57.6805 14.4546 57.6452 13.2567 57.6452 11.8202ZM61.2612 20.8071C61.0242 21.0249 60.6813 21.0405 60.414 20.8953C59.2237 19.8789 59.0119 19.407 58.3563 18.4373C56.3893 20.5012 54.9974 21.1183 52.4454 21.1183C49.4295 21.1183 47.0793 19.2047 47.0793 15.3725C47.0793 12.3803 48.6579 10.3423 50.9022 9.34663C52.8489 8.46505 55.5673 8.30948 57.6452 8.06575V7.58867C57.6452 6.71227 57.7107 5.67512 57.2114 4.91801C56.7726 4.23867 55.9354 3.95864 55.1991 3.95864C53.8324 3.95864 52.6119 4.67946 52.3143 6.17295C52.2538 6.50484 52.0167 6.83155 51.694 6.8471L48.214 6.46335C47.9215 6.39594 47.5988 6.15221 47.6794 5.69068C48.4813 1.3554 52.2891 0.048584 55.6984 0.048584C57.4434 0.048584 59.723 0.525673 61.0999 1.88434C62.8449 3.55934 62.6784 5.79439 62.6784 8.22651V13.9723C62.6784 15.6992 63.3744 16.4563 64.0301 17.3897C64.2621 17.7216 64.3125 18.1209 64.02 18.3698C63.2887 18.9973 61.9875 20.1641 61.2713 20.8175L61.2612 20.8071Z" fill="white"/>
<path d="M10.6359 11.8202V11.0216C8.04359 11.0216 5.30504 11.5921 5.30504 14.7346C5.30504 16.3267 6.10694 17.4053 7.48378 17.4053C8.49245 17.4053 9.39522 16.7674 9.96512 15.7303C10.6712 14.4546 10.6359 13.2567 10.6359 11.8202ZM14.252 20.8071C14.0149 21.0249 13.672 21.0405 13.4047 20.8953C12.2145 19.8789 12.0026 19.407 11.347 18.4373C9.38009 20.5012 7.98812 21.1183 5.43617 21.1183C2.42023 21.1183 0.0700226 19.2047 0.0700226 15.3725C0.0700226 12.3803 1.6486 10.3423 3.8929 9.34663C5.83964 8.46505 8.55802 8.30948 10.6359 8.06575V7.58867C10.6359 6.71227 10.7015 5.67512 10.2022 4.91801C9.76338 4.23867 8.92618 3.95864 8.18985 3.95864C6.8231 3.95864 5.6026 4.67946 5.30504 6.17295C5.24452 6.50484 5.00748 6.83155 4.68471 6.8471L1.20478 6.46335C0.912265 6.39594 0.589489 6.15221 0.670183 5.69068C1.47208 1.3554 5.27982 0.048584 8.68915 0.048584C10.4342 0.048584 12.7138 0.525673 14.0906 1.88434C15.8356 3.55934 15.6692 5.79439 15.6692 8.22651V13.9723C15.6692 15.6992 16.3652 16.4563 17.0208 17.3897C17.2528 17.7216 17.3032 18.1209 17.0107 18.3698C16.2794 18.9973 14.9782 20.1641 14.2621 20.8175L14.252 20.8071Z" fill="white"/>
</g>
<defs>
<clipPath id="clip0_33_2863">
<rect width="116" height="36" fill="white"/>
</clipPath>
</defs>
</svg>
