<svg width="32" height="28" viewBox="0 0 32 28" fill="none" xmlns="http://www.w3.org/2000/svg">
<path d="M31.4885 12.7565L19.9322 1.19992C19.6023 0.870036 19.1626 0.688965 18.6938 0.688965C18.2245 0.688965 17.7851 0.870297 17.4552 1.19992L16.406 2.24941C16.0764 2.57877 15.8948 3.0187 15.8948 3.48777C15.8948 3.95658 16.0764 4.41134 16.406 4.7407L23.1478 11.4973H1.72877C0.763051 11.4973 0 12.2534 0 13.2193V14.703C0 15.669 0.763051 16.5013 1.72877 16.5013H23.2243L16.4062 23.2956C16.0766 23.6255 15.895 24.0535 15.895 24.5225C15.895 24.9911 16.0766 25.4253 16.4062 25.7549L17.4555 26.801C17.7854 27.1309 18.2248 27.3107 18.6941 27.3107C19.1629 27.3107 19.6026 27.1286 19.9325 26.7987L31.4888 15.2423C31.8195 14.9114 32.0013 14.4697 32 14.0001C32.001 13.5289 31.8195 13.0869 31.4885 12.7565Z" fill="white"/>
</svg>
