<svg width="40" height="40" viewBox="0 0 40 40" fill="none" xmlns="http://www.w3.org/2000/svg">
<g opacity="0.25" clip-path="url(#clip0_51_229)">
<path d="M0.639343 21.5542L15.0848 36C15.4971 36.4123 16.0467 36.6387 16.6327 36.6387C17.2194 36.6387 17.7686 36.412 18.181 36L19.4925 34.6881C19.9046 34.2764 20.1315 33.7265 20.1315 33.1402C20.1315 32.5542 19.9046 31.9857 19.4925 31.574L11.0653 23.1282L37.839 23.1282C39.0462 23.1282 40 22.1832 40 20.9757V19.1211C40 17.9136 39.0462 16.8733 37.839 16.8733L10.9697 16.8733L19.4922 8.38037C19.9042 7.96801 20.1312 7.43305 20.1312 6.84672C20.1312 6.26103 19.9042 5.71827 19.4922 5.30624L18.1807 3.99861C17.7683 3.58626 17.219 3.36155 16.6324 3.36155C16.0464 3.36155 15.4968 3.58918 15.0844 4.00154L0.639015 18.447C0.225689 18.8606 -0.00162506 19.4128 0 19.9998C-0.00130081 20.5887 0.225685 21.1412 0.639343 21.5542Z" fill="#11112B"/>
</g>
<defs>
<clipPath id="clip0_51_229">
<rect width="40" height="40" fill="white" transform="matrix(-1 0 0 -1 40 40)"/>
</clipPath>
</defs>
</svg>
