<svg width="64" height="58" viewBox="0 0 64 58" fill="none" xmlns="http://www.w3.org/2000/svg">
<path d="M32 57.4395C31.0889 57.4395 30.2104 57.1094 29.5259 56.5098C26.9404 54.249 24.4478 52.1245 22.2485 50.2505L22.2373 50.2407C15.7896 44.7461 10.2217 40.001 6.34766 35.3267C2.01709 30.1011 0 25.1465 0 19.7339C0 14.4751 1.80322 9.62354 5.07715 6.07227C8.39014 2.479 12.936 0.5 17.8789 0.5C21.5732 0.5 24.9565 1.66797 27.9346 3.97119C29.4375 5.13379 30.7998 6.55664 32 8.21631C33.2007 6.55664 34.5625 5.13379 36.0659 3.97119C39.0439 1.66797 42.4272 0.5 46.1216 0.5C51.064 0.5 55.6104 2.479 58.9233 6.07227C62.1973 9.62354 64 14.4751 64 19.7339C64 25.1465 61.9834 30.1011 57.6528 35.3262C53.7788 40.001 48.2114 44.7456 41.7646 50.2397C39.5615 52.1167 37.0649 54.2446 34.4736 56.5107C33.7896 57.1094 32.9106 57.4395 32 57.4395ZM17.8789 4.24902C13.9956 4.24902 10.4282 5.79883 7.83301 8.61328C5.19922 11.4702 3.74854 15.4194 3.74854 19.7339C3.74854 24.2861 5.44043 28.3574 9.23389 32.9346C12.9004 37.3589 18.354 42.0063 24.6685 47.3877L24.6802 47.3975C26.8877 49.2788 29.3901 51.4116 31.9946 53.689C34.6147 51.4072 37.1211 49.271 39.333 47.3867C45.647 42.0054 51.1001 37.3589 54.7666 32.9346C58.5596 28.3574 60.2515 24.2861 60.2515 19.7339C60.2515 15.4194 58.8008 11.4702 56.167 8.61328C53.5723 5.79883 50.0044 4.24902 46.1216 4.24902C43.2769 4.24902 40.665 5.15332 38.3589 6.93652C36.3037 8.52637 34.8721 10.5361 34.0327 11.9424C33.6011 12.6655 32.8413 13.0972 32 13.0972C31.1587 13.0972 30.3989 12.6655 29.9673 11.9424C29.1284 10.5361 27.6968 8.52637 25.6411 6.93652C23.335 5.15332 20.7231 4.24902 17.8789 4.24902Z" fill="#11112B"/>
</svg>
