<svg width="22" height="40" viewBox="0 0 22 40" fill="none" xmlns="http://www.w3.org/2000/svg">
<path d="M6.39208 22.4957C6.24808 22.4957 3.08008 22.4957 1.64008 22.4957C0.87208 22.4957 0.63208 22.2077 0.63208 21.4877C0.63208 19.5677 0.63208 17.5997 0.63208 15.6797C0.63208 14.9117 0.92008 14.6717 1.64008 14.6717H6.39208C6.39208 14.5277 6.39208 11.7437 6.39208 10.4477C6.39208 8.52766 6.72808 6.70366 7.68808 5.02366C8.69608 3.29566 10.1361 2.14366 11.9601 1.47166C13.1601 1.03966 14.3601 0.847656 15.6561 0.847656H20.3601C21.0321 0.847656 21.3201 1.13566 21.3201 1.80766V7.27966C21.3201 7.95166 21.0321 8.23966 20.3601 8.23966C19.0641 8.23966 17.7681 8.23966 16.4721 8.28766C15.1761 8.28766 14.5041 8.91166 14.5041 10.2557C14.4561 11.6957 14.5041 13.0877 14.5041 14.5757H20.0721C20.8401 14.5757 21.1281 14.8637 21.1281 15.6317V21.4397C21.1281 22.2077 20.8881 22.4477 20.0721 22.4477C18.3441 22.4477 14.6481 22.4477 14.5041 22.4477V38.0957C14.5041 38.9117 14.2641 39.1997 13.4001 39.1997C11.3841 39.1997 9.41608 39.1997 7.40008 39.1997C6.68008 39.1997 6.39208 38.9117 6.39208 38.1917C6.39208 33.1517 6.39208 22.6397 6.39208 22.4957Z" fill="#11112B"/>
</svg>
