<svg width="125" height="42" viewBox="0 0 125 42" fill="none" xmlns="http://www.w3.org/2000/svg">
<path d="M53.1939 21.5387C53.1939 27.3685 48.6029 31.6644 42.9687 31.6644C37.3345 31.6644 32.7435 27.3685 32.7435 21.5387C32.7435 15.6679 37.3345 11.4131 42.9687 11.4131C48.6029 11.4131 53.1939 15.6679 53.1939 21.5387ZM48.7178 21.5387C48.7178 17.8957 46.0569 15.4031 42.9687 15.4031C39.8805 15.4031 37.2196 17.8957 37.2196 21.5387C37.2196 25.1453 39.8805 27.6744 42.9687 27.6744C46.0569 27.6744 48.7178 25.1407 48.7178 21.5387Z" fill="#11112B"/>
<path d="M75.2527 21.5387C75.2527 27.3685 70.6617 31.6644 65.0276 31.6644C59.3934 31.6644 54.8024 27.3685 54.8024 21.5387C54.8024 15.6724 59.3934 11.4131 65.0276 11.4131C70.6617 11.4131 75.2527 15.6679 75.2527 21.5387ZM70.7766 21.5387C70.7766 17.8957 68.1158 15.4031 65.0276 15.4031C61.9393 15.4031 59.2785 17.8957 59.2785 21.5387C59.2785 25.1453 61.9393 27.6744 65.0276 27.6744C68.1158 27.6744 70.7766 25.1407 70.7766 21.5387Z" fill="#11112B"/>
<path d="M96.3925 12.0248V30.2035C96.3925 37.6813 91.9532 40.7355 86.705 40.7355C81.7647 40.7355 78.7914 37.4531 77.6701 34.7687L81.5671 33.1572C82.2611 34.8053 83.9614 36.75 86.7004 36.75C90.0598 36.75 92.1416 34.6911 92.1416 30.8153V29.359H91.9853C90.9835 30.587 89.0533 31.6598 86.6177 31.6598C81.5212 31.6598 76.8521 27.2498 76.8521 21.5753C76.8521 15.8596 81.5212 11.4131 86.6177 11.4131C89.0487 11.4131 90.9789 12.4859 91.9853 13.6774H92.1416V12.0294H96.3925V12.0248ZM92.4587 21.5753C92.4587 18.0098 90.0644 15.4031 87.0175 15.4031C83.9293 15.4031 81.3419 18.0098 81.3419 21.5753C81.3419 25.1042 83.9293 27.6744 87.0175 27.6744C90.0644 27.6744 92.4587 25.1042 92.4587 21.5753Z" fill="#11112B"/>
<path d="M103.401 1.36951V31.0434H99.0349V1.36951H103.401Z" fill="#11112B"/>
<path d="M120.414 24.8713L123.888 27.1721C122.766 28.8202 120.064 31.6598 115.395 31.6598C109.605 31.6598 105.28 27.2132 105.28 21.5341C105.28 15.5126 109.641 11.4084 114.894 11.4084C120.184 11.4084 122.771 15.5902 123.617 17.85L124.081 19.0004L110.455 24.6065C111.498 26.638 113.12 27.6743 115.395 27.6743C117.675 27.6743 119.255 26.5604 120.414 24.8713ZM109.72 21.2282L118.828 17.4711C118.327 16.2065 116.82 15.3254 115.046 15.3254C112.771 15.3254 109.605 17.3204 109.72 21.2282Z" fill="#11112B"/>
<path d="M16.2178 18.9046V14.6087H30.7904C30.9329 15.3574 31.0064 16.2431 31.0064 17.2018C31.0064 20.4248 30.1194 24.4103 27.261 27.2498C24.4807 30.1259 20.9283 31.6598 16.2224 31.6598C7.49996 31.6598 0.165405 24.602 0.165405 15.9372C0.165405 7.27243 7.49996 0.2146 16.2224 0.2146C21.0478 0.2146 24.4853 2.09547 27.068 4.54699L24.0165 7.5783C22.1645 5.85264 19.6553 4.51047 16.2178 4.51047C9.84831 4.51047 4.86669 9.60982 4.86669 15.9372C4.86669 22.2646 9.84831 27.3639 16.2178 27.3639C20.3492 27.3639 22.7022 25.7159 24.2095 24.2185C25.4319 23.0042 26.2362 21.2694 26.5533 18.9L16.2178 18.9046Z" fill="#11112B"/>
</svg>
