<svg width="43" height="42" viewBox="0 0 43 42" fill="none" xmlns="http://www.w3.org/2000/svg">
<path d="M32.2499 0H10.7499C4.8379 0 -0.00012207 4.72346 -0.00012207 10.5V31.5C-0.00012207 37.2745 4.8379 42 10.7499 42H32.2499C38.1619 42 42.9999 37.2745 42.9999 31.5V10.5C42.9999 4.72346 38.1619 0 32.2499 0ZM21.4999 29.7497C16.5516 29.7497 12.5414 25.831 12.5414 21C12.5414 16.1668 16.5516 12.2498 21.4999 12.2498C26.4459 12.2498 30.4584 16.1668 30.4584 21C30.4584 25.831 26.4459 29.7497 21.4999 29.7497ZM33.1459 12.2498C31.6602 12.2498 30.4584 11.0743 30.4584 9.62483C30.4584 8.17534 31.6602 6.99983 33.1459 6.99983C34.6316 6.99983 35.8334 8.17534 35.8334 9.62483C35.8334 11.0743 34.6316 12.2498 33.1459 12.2498Z" fill="#11112B"/>
</svg>
