<svg width="92" height="100" viewBox="0 0 92 100" fill="none" xmlns="http://www.w3.org/2000/svg">
<path d="M85.0625 64.2197V35.7803C88.6242 35.0545 91.3125 31.8979 91.3125 28.125C91.3125 23.8172 87.8078 20.3125 83.5 20.3125C81.1883 20.3125 79.1086 21.3227 77.677 22.9238L53.7293 8.9459C53.7834 8.57559 53.8125 8.19746 53.8125 7.8125C53.8125 3.50469 50.3078 0 46 0C41.6922 0 38.1875 3.50469 38.1875 7.8125C38.1875 8.19746 38.2166 8.57559 38.2707 8.9459L14.323 22.9238C12.8914 21.3227 10.8119 20.3125 8.5 20.3125C4.19219 20.3125 0.6875 23.8172 0.6875 28.125C0.6875 31.8979 3.37578 35.0545 6.9375 35.7803V64.2197C3.37578 64.9455 0.6875 68.1021 0.6875 71.875C0.6875 76.1828 4.19219 79.6875 8.5 79.6875C10.8123 79.6875 12.8922 78.6768 14.324 77.075L38.2709 91.0525C38.2168 91.4232 38.1875 91.8019 38.1875 92.1873C38.1875 96.4951 41.6922 99.9998 46 99.9998C50.3078 99.9998 53.8125 96.4951 53.8125 92.1873C53.8125 91.8018 53.7834 91.4232 53.7291 91.0525L77.676 77.075C79.1078 78.6768 81.1877 79.6875 83.5 79.6875C87.8078 79.6875 91.3125 76.1828 91.3125 71.875C91.3125 68.1021 88.6242 64.9455 85.0625 64.2197ZM80.9803 64.4818L66.5461 39.8223L77.6768 33.3262C78.7771 34.5568 80.26 35.4385 81.9373 35.7805V64.2199C81.6104 64.2863 81.2914 64.3756 80.9803 64.4818ZM47.5625 70.3125V57.6553C49.2398 57.3135 50.7227 56.4316 51.823 55.201L76.1016 69.3705C75.9977 69.6768 75.9102 69.9906 75.8447 70.3123H47.5625V70.3125ZM16.1553 70.3125C16.0896 69.9906 16.0023 69.677 15.8984 69.3707L40.177 55.2012C41.2773 56.4318 42.7602 57.3135 44.4375 57.6555V70.3125H16.1553ZM10.0625 64.2197V35.7803C11.7398 35.4385 13.2227 34.5566 14.323 33.326L25.4537 39.8221L11.0197 64.4818C10.7086 64.3756 10.3896 64.2863 10.0625 64.2197ZM28.1514 41.3967L38.6016 47.4957C38.3346 48.2824 38.1875 49.1242 38.1875 50C38.1875 50.8758 38.3346 51.7176 38.6016 52.5043L14.323 66.6738C14.1311 66.4592 13.9277 66.2549 13.7135 66.0625L28.1514 41.3967ZM44.4375 15.4678V42.3447C42.7602 42.6865 41.2773 43.5684 40.177 44.799L29.7291 38.7014L43.4816 15.2063C43.7922 15.3123 44.1107 15.4012 44.4375 15.4678ZM48.5184 15.2061L62.2709 38.7012L51.823 44.7988C50.7227 43.5682 49.2398 42.6865 47.5625 42.3445V15.4678C47.8893 15.4012 48.2078 15.3123 48.5184 15.2061ZM46 54.6875C44.3266 54.6875 42.8559 53.8051 42.0264 52.4818C42.0061 52.4385 41.9842 52.3953 41.9594 52.3531C41.9332 52.3086 41.9051 52.266 41.8754 52.2252C41.5166 51.5627 41.3125 50.8047 41.3125 50C41.3125 49.1861 41.5215 48.4201 41.8879 47.7523C41.9121 47.7176 41.9375 47.6842 41.9594 47.6469C41.9836 47.6053 42.0051 47.5629 42.0252 47.5199C42.8545 46.1957 44.3258 45.3125 46 45.3125C47.6746 45.3125 49.1463 46.1961 49.9756 47.5209C49.9955 47.5633 50.0166 47.6055 50.0406 47.6469C50.0619 47.6834 50.0871 47.7162 50.1109 47.7504C50.4781 48.4186 50.6875 49.1852 50.6875 50C50.6875 50.8031 50.4842 51.5596 50.1266 52.2211C50.0961 52.2633 50.0672 52.3072 50.0406 52.3531C50.0164 52.3947 49.9949 52.4371 49.9748 52.4801C49.1455 53.8043 47.6742 54.6875 46 54.6875ZM77.677 66.6738L53.3984 52.5043C53.6654 51.7176 53.8125 50.8758 53.8125 50C53.8125 49.1242 53.6654 48.2824 53.3984 47.4957L63.8486 41.3967L78.2865 66.0627C78.0723 66.2551 77.8689 66.4592 77.677 66.6738ZM83.5 23.4375C86.0844 23.4375 88.1875 25.5406 88.1875 28.125C88.1875 30.7094 86.0844 32.8125 83.5 32.8125C81.8254 32.8125 80.3537 31.9289 79.5246 30.6041C79.5047 30.5615 79.4836 30.5195 79.4594 30.4781C79.433 30.433 79.4045 30.3898 79.3746 30.3484C79.0162 29.6863 78.8125 28.9291 78.8125 28.125C78.8125 27.3111 79.0215 26.5451 79.3879 25.8773C79.4121 25.8426 79.4375 25.8092 79.4594 25.7719C79.4836 25.7303 79.5051 25.6879 79.5252 25.6449C80.3545 24.3207 81.8258 23.4375 83.5 23.4375ZM76.1016 25.6205C75.8346 26.4072 75.6875 27.249 75.6875 28.125C75.6875 29.001 75.8346 29.8426 76.1016 30.6293L64.9684 37.127L51.2125 13.6258C51.7645 13.1305 52.2451 12.5578 52.6385 11.9252L76.1016 25.6205ZM46 3.125C48.5844 3.125 50.6875 5.22813 50.6875 7.8125C50.6875 8.30059 50.6123 8.77148 50.473 9.21445C50.4725 9.21641 50.4717 9.21816 50.4711 9.22012C50.1225 10.325 49.3746 11.2539 48.3979 11.8381C48.3871 11.8439 48.3762 11.8486 48.3656 11.8547C48.3572 11.8596 48.3496 11.8654 48.3414 11.8705C47.6518 12.2701 46.8525 12.5 46 12.5C45.1477 12.5 44.3484 12.2701 43.659 11.8707C43.6506 11.8656 43.643 11.8596 43.6344 11.8547C43.623 11.848 43.6113 11.8432 43.5998 11.8367C42.6234 11.2521 41.876 10.3227 41.5279 9.21777L41.5277 9.21738C41.3881 8.77363 41.3125 8.30176 41.3125 7.8125C41.3125 5.22813 43.4156 3.125 46 3.125ZM39.3617 11.9252C39.7551 12.5578 40.2357 13.1305 40.7877 13.6258L27.0314 37.127L15.8982 30.6293C16.1652 29.8426 16.3123 29.0008 16.3123 28.125C16.3123 27.249 16.1652 26.4074 15.8982 25.6205L39.3617 11.9252ZM3.8125 28.125C3.8125 25.5406 5.91563 23.4375 8.5 23.4375C10.1746 23.4375 11.6463 24.3211 12.4756 25.6459C12.4955 25.6883 12.5166 25.7305 12.5406 25.7719C12.5619 25.8084 12.5871 25.8412 12.6109 25.8754C12.9781 26.5437 13.1875 27.3104 13.1875 28.125C13.1875 28.9281 12.9842 29.6844 12.6268 30.3459C12.5963 30.3881 12.5674 30.432 12.5406 30.4781C12.5164 30.5197 12.4949 30.5621 12.4748 30.6051C11.6455 31.9293 10.1742 32.8125 8.5 32.8125C5.91563 32.8125 3.8125 30.7094 3.8125 28.125ZM8.5 76.5625C5.91563 76.5625 3.8125 74.4594 3.8125 71.875C3.8125 69.2906 5.91563 67.1875 8.5 67.1875C9.35762 67.1875 10.1617 67.4203 10.8541 67.8242C10.8586 67.827 10.8627 67.8301 10.8672 67.8328C10.8715 67.8354 10.8762 67.8369 10.8805 67.8395C11.5285 68.2232 12.0764 68.7582 12.4754 69.3959C12.4953 69.4385 12.5164 69.4805 12.5406 69.5219C12.5621 69.5584 12.5871 69.5914 12.6109 69.6256C12.9781 70.2937 13.1875 71.0603 13.1875 71.875C13.1875 72.676 12.9852 73.4305 12.6295 74.0906C12.5979 74.134 12.5682 74.1793 12.5406 74.2266C12.5148 74.2709 12.4916 74.316 12.4707 74.3615C11.6406 75.6822 10.1713 76.5625 8.5 76.5625ZM15.8988 74.3781C16.0025 74.0723 16.0898 73.759 16.1553 73.4375H44.4375V84.5322C42.3002 84.9678 40.4785 86.2795 39.3625 88.0736L15.8988 74.3781ZM46 96.875C43.4156 96.875 41.3125 94.7719 41.3125 92.1875C41.3125 89.6031 43.4156 87.5 46 87.5C48.5844 87.5 50.6875 89.6031 50.6875 92.1875C50.6875 94.7719 48.5844 96.875 46 96.875ZM52.6375 88.0736C51.5215 86.2795 49.6998 84.9678 47.5625 84.5322V73.4375H75.8447C75.9102 73.759 75.9975 74.0723 76.1012 74.3781L52.6375 88.0736ZM83.5 76.5625C81.8281 76.5625 80.3586 75.6818 79.5287 74.3605C79.5078 74.3152 79.485 74.2705 79.4594 74.2266C79.432 74.1797 79.4025 74.135 79.3713 74.092C79.015 73.4314 78.8125 72.6766 78.8125 71.875C78.8125 71.0611 79.0215 70.2951 79.3881 69.6272C79.4123 69.5924 79.4377 69.559 79.4594 69.5219C79.4836 69.4803 79.5051 69.4379 79.5252 69.3949C79.9242 68.7576 80.4719 68.2231 81.1195 67.8395C81.1238 67.8369 81.1285 67.8354 81.1328 67.8328C81.1373 67.8303 81.1412 67.827 81.1457 67.8244C81.8381 67.4203 82.6422 67.1875 83.5 67.1875C86.0844 67.1875 88.1875 69.2906 88.1875 71.875C88.1875 74.4594 86.0844 76.5625 83.5 76.5625Z" fill="white"/>
</svg>
