<svg width="220" height="36" viewBox="0 0 220 36" fill="none" xmlns="http://www.w3.org/2000/svg">
<path d="M182.092 27.4598L181.662 1.06787H189.444V34.3319H178.255L170.489 7.03275H170.322L170.753 34.3319H163.02V1.06787H174.694L181.919 27.4598H182.092Z" fill="#11112B"/>
<path d="M40.6265 4.18246L36.321 34.6819H27.8336L33.6622 1.06787H47.6441L53.446 34.6819H44.9921L40.8035 4.18246H40.6265Z" fill="#11112B"/>
<path d="M73.2132 34.6819L67.9558 4.46106H67.7854L67.5883 34.6819H59.7156L60.4103 1.06787H73.2366L77.1178 26.7633H77.2849L81.1695 1.06787H93.989L94.6704 34.6819H86.8143L86.6072 4.46106H86.4436L81.1895 34.6819H73.2132Z" fill="#11112B"/>
<path d="M14.5965 25.1989C14.9038 26.0133 14.8103 27.0598 14.6667 27.692C14.4028 28.81 13.6947 29.9494 11.6037 29.9494C9.63305 29.9494 8.43727 28.7421 8.43727 26.8955V23.6416H0.00668986L0 26.2455C0 33.7391 5.51796 36 11.43 36C17.115 36 21.7979 33.9212 22.5428 28.3207C22.9236 25.4168 22.6396 23.5166 22.5094 22.7987C21.1833 15.7623 9.25226 13.6621 8.36378 9.72596C8.21347 9.0509 8.25689 8.33654 8.33037 7.95436C8.54749 6.88283 9.23556 5.70057 11.2029 5.70057C13.04 5.70057 14.1256 6.91497 14.1256 8.75087C14.1256 9.36879 14.1256 10.8261 14.1256 10.8261H21.9649V8.46513C21.9649 1.14297 15.819 0 11.3666 0C5.77515 0 1.2058 1.9752 0.370763 7.44717C0.143632 8.95803 0.11023 10.3046 0.440904 11.9905C1.81371 18.859 12.9799 20.8485 14.5965 25.1989Z" fill="#11112B"/>
<path d="M116.812 25.1379C117.123 25.9451 117.023 26.9631 116.882 27.5953C116.625 28.7097 115.924 29.8312 113.846 29.8312C111.902 29.8312 110.717 28.624 110.717 26.8202L110.71 23.5949H102.366L102.356 26.163C102.356 33.5816 107.824 35.8211 113.676 35.8211C119.301 35.8211 123.94 33.7709 124.672 28.2203C125.053 25.3379 124.782 23.4627 124.645 22.7591C123.326 15.787 111.515 13.7082 110.636 9.81138C110.486 9.13988 110.529 8.43267 110.606 8.07192C110.83 6.99324 111.505 5.83956 113.452 5.83956C115.272 5.83956 116.335 7.02539 116.335 8.847C116.335 9.45777 116.335 10.9008 116.335 10.9008H124.114V8.56483C124.114 1.32125 118.018 0.185425 113.609 0.185425C108.081 0.185425 103.549 2.13562 102.73 7.5683C102.503 9.05773 102.48 10.3793 102.804 12.058C104.156 18.8551 115.212 20.8303 116.812 25.1379Z" fill="#11112B"/>
<path d="M143.216 29.6527C145.397 29.6527 146.079 28.0383 146.229 27.2132C146.293 26.8489 146.309 26.3631 146.303 25.9274V1.05347H154.252V25.1666C154.269 25.7845 154.212 27.056 154.185 27.3739C153.628 33.6496 148.988 35.6855 143.213 35.6855C137.431 35.6855 132.788 33.6496 132.237 27.3739C132.21 27.056 132.154 25.7845 132.17 25.1666V1.05347H140.113V25.9274C140.113 26.3631 140.127 26.8525 140.187 27.2132C140.357 28.0383 141.018 29.6527 143.216 29.6527Z" fill="#11112B"/>
<path d="M208.79 29.2993C211.068 29.2993 211.863 27.7598 212.01 26.8633C212.067 26.4775 212.084 26.0096 212.081 25.5846V20.7055H208.854V15.7979H220V24.8202C219.993 25.4489 219.98 25.9132 219.886 27.0347C219.362 33.1496 214.402 35.332 208.831 35.332C203.249 35.332 198.296 33.1496 197.765 27.0347C197.674 25.9132 197.661 25.4489 197.651 24.8202L197.658 10.6653C197.658 10.0688 197.728 9.01153 197.788 8.45076C198.486 2.16799 203.249 0.146362 208.831 0.146362C214.405 0.146362 219.285 2.15728 219.863 8.45076C219.967 9.52229 219.933 10.6653 219.933 10.6653V11.7868H212.007V9.90447C212.014 9.90805 211.997 9.10439 211.903 8.62578C211.77 7.88284 211.165 6.17553 208.77 6.17553C206.479 6.17553 205.808 7.78998 205.641 8.62578C205.544 9.06868 205.507 9.66874 205.507 10.2116V25.5846C205.5 26.0096 205.524 26.4775 205.587 26.8633C205.724 27.7634 206.516 29.2993 208.79 29.2993Z" fill="#11112B"/>
</svg>
