<svg width="203" height="36" viewBox="0 0 203 36" fill="none" xmlns="http://www.w3.org/2000/svg">
<g clip-path="url(#clip0_33_4599)">
<path d="M154.406 2.01265V6.01327H158.283C159.976 6.01327 161.089 7.08921 161.722 7.78466C162.229 8.35738 173.395 21.113 173.662 21.4485C173.93 21.7839 173.93 21.7878 173.93 22.0006V28.3215C173.93 28.6113 173.901 28.9003 173.845 29.1844C173.765 29.3679 173.647 29.5318 173.499 29.6647C173.35 29.7976 173.175 29.8963 172.984 29.9539C172.618 30.0002 172.249 30.0235 171.88 30.0235L167.999 30.0186V34.0193H189.768V30.0186H185.672C185.305 30.0205 184.939 29.9969 184.575 29.9483C184.385 29.8912 184.21 29.7928 184.062 29.66C183.914 29.5272 183.797 29.3632 183.719 29.1796C183.662 28.8955 183.632 28.6066 183.63 28.3167V21.9998C183.606 21.7921 183.658 21.5828 183.776 21.4109L195.854 7.52658C196.963 6.28293 197.54 6.01246 198.993 6.01246H203V2.01184H185.059V6.00446H187.767C187.912 5.99567 188.057 6.02906 188.183 6.10062C188.31 6.17218 188.414 6.27891 188.482 6.40815C188.551 6.5374 188.581 6.68372 188.569 6.82971C188.558 6.9757 188.505 7.11524 188.416 7.23174C188.36 7.31354 180.905 16.1458 180.812 16.2317C180.719 16.3177 180.658 16.297 180.589 16.203C180.52 16.1088 173.155 7.23176 173.155 7.23176C172.635 6.58948 173.042 6.00448 173.651 6.00448H176.29V2.01186L154.406 2.01265Z" fill="#11112B"/>
<path d="M101.013 2.0127V6.01332H104.488C106.997 6.01332 107.168 7.42118 107.168 8.64845V27.3723C107.168 28.4932 107.233 30.0314 105.633 30.0314H101.345V34.0281H119.653V30.0314H115.187C113.404 30.0314 113.323 29.2094 113.303 27.4626V11.4218L138.446 34.0281H144.841L144.504 8.49663C144.536 6.63118 144.65 6.00932 146.566 6.00932H150.573V2.0127H131.897V6.00932H135.998C137.882 6.00932 138.198 6.74164 138.222 8.49663L138.446 21.8576L116.62 2.0127H101.013Z" fill="#11112B"/>
<path d="M18.5745 0C14.6404 0 10.1703 0.744539 6.39451 2.45454C2.87042 4.04181 2.55903e-05 6.59023 2.55903e-05 10.8161C-0.00532945 13.0292 0.829948 15.1605 2.33452 16.7727C3.35359 17.7218 4.99814 19.3337 9.29362 20.2828C11.214 20.6919 15.3187 21.3505 19.4071 21.7841C23.4955 22.2177 27.4581 22.6024 29.0821 23.0401C30.3732 23.3715 32.545 23.8216 32.545 26.2761C32.545 28.7307 30.2595 29.4668 29.8616 29.6263C29.4637 29.7859 26.7188 31.0542 21.79 31.0542C18.5244 30.9628 15.2884 30.4021 12.18 29.3891C10.3408 28.7263 8.41275 27.8549 6.61416 25.6417C5.88812 24.5996 5.4852 23.3638 5.45643 22.0909H0.990419V34.6912H5.95201V32.9854C5.9512 32.8588 5.98393 32.7343 6.04677 32.6247C6.10961 32.5151 6.20029 32.4244 6.30952 32.3618C6.41875 32.2993 6.54256 32.2673 6.66816 32.269C6.79377 32.2708 6.91666 32.3062 7.02414 32.3717C9.36144 33.3964 11.7926 34.1883 14.283 34.736C16.8895 35.2842 18.5747 35.6812 21.8146 35.6812C25.2333 35.7467 28.6404 35.262 31.9075 34.2454C34.0769 33.6461 36.1124 32.6336 37.9039 31.2627C38.9115 30.4829 39.726 29.4782 40.2832 28.3276C40.8404 27.177 41.1253 25.912 41.1154 24.6318C41.1327 22.1994 40.2012 19.8575 38.5216 18.1103C37.5875 17.1971 36.5054 16.4516 35.322 15.9058C34.0498 15.3266 32.7291 14.8624 31.3754 14.5187C28.8014 13.8846 23.0204 13.091 20.2556 12.8129C17.3568 12.5101 12.3262 12.0885 10.3165 11.4625C9.70754 11.2703 8.46496 10.6776 8.46496 9.22532C8.46496 8.19031 9.03343 7.31471 10.154 6.60699C11.9363 5.48197 15.5336 4.78204 19.285 4.78204C22.9162 4.73782 26.5177 5.44658 29.8656 6.86426C30.7649 7.25925 31.6107 7.76805 32.3824 8.37838C33.6405 9.46116 34.5118 10.9296 34.8629 12.5588H38.8705V1.59162H34.4045V2.86364C34.4045 3.27273 33.9986 3.81291 33.1865 3.36701C31.1728 2.31156 25.513 0.0286344 18.5745 0Z" fill="#11112B"/>
<path d="M72.3211 0C65.2852 0 57.8144 2.45425 53.592 6.32015C51.9824 7.79689 50.6974 9.59684 49.8198 11.6042C48.9422 13.6115 48.4913 15.7818 48.4964 17.9752C48.4713 20.1778 48.9128 22.3604 49.7915 24.3773C50.6702 26.3942 51.9659 28.1989 53.592 29.6711C58.1392 33.7906 64.9604 36 72.3211 36C79.6941 36 86.6611 33.8152 91.0986 29.6711C92.6765 28.1644 93.9353 26.3513 94.7991 24.3412C95.6628 22.3311 96.1137 20.1656 96.1245 17.9752C96.1462 15.7871 95.7099 13.6189 94.8439 11.6121C93.9779 9.60538 92.7017 7.80516 91.0986 6.32892C86.3363 1.97619 80.1041 0 72.3211 0ZM72.3211 4.67978C76.17 4.67978 79.8767 6.07517 82.3736 8.55018C84.7893 10.9474 86.0514 14.3347 86.0514 17.9593C86.0514 21.7556 84.903 24.832 82.3736 27.3684C79.8442 29.9047 76.2228 31.2627 72.3211 31.2627C68.4479 31.2627 64.7489 29.8761 62.252 27.3684C61.0578 26.1199 60.1203 24.6459 59.4932 23.0312C58.8661 21.4165 58.5619 19.6928 58.598 17.9593C58.598 14.3511 59.8444 10.9515 62.252 8.55018C64.7489 6.0629 68.4723 4.67978 72.3211 4.67978Z" fill="#11112B"/>
</g>
<defs>
<clipPath id="clip0_33_4599">
<rect width="203" height="36" fill="white"/>
</clipPath>
</defs>
</svg>
