<svg width="166" height="36" viewBox="0 0 166 36" fill="none" xmlns="http://www.w3.org/2000/svg">
<g clip-path="url(#clip0_33_4586)">
<path d="M68.7635 28.7169H64.4342L60.2128 12.2275L55.945 28.7169H51.5201L45.7158 7.28394H49.6425L53.8281 24.3324L58.3976 7.28394H62.3638L66.659 24.4335L70.6342 7.28394H74.4257L68.7635 28.7169Z" fill="#11112B"/>
<path d="M79.9755 8.85171C79.9755 9.43114 79.7675 9.91398 79.3515 10.3003C78.9453 10.6866 78.45 10.8797 77.8656 10.8797C77.2811 10.8797 76.7858 10.6866 76.3797 10.3003C75.9736 9.914 75.7705 9.43114 75.7705 8.85171C75.7705 8.26213 75.9736 7.76913 76.3797 7.37263C76.7958 6.97618 77.2911 6.77795 77.8656 6.77795C78.4699 6.77795 78.9701 6.98129 79.3664 7.38787C79.7725 7.79451 79.9755 8.28247 79.9755 8.85171ZM76.0592 28.7161V13.2702H79.5682V28.7161H76.0592Z" fill="#11112B"/>
<path d="M93.0735 28.7168V20.1169C93.0735 17.8637 92.3923 15.9199 90.1804 15.9199C87.9799 15.9199 86.5845 17.9533 86.5845 20.0102V28.7165H83.1521V13.2706H86.5845V15.4554H86.644C87.7831 13.6456 89.4275 13.0101 91.5771 13.0101C93.1917 13.0101 94.4399 13.418 95.3215 14.4752C96.213 15.5324 96.6044 17.1385 96.6044 19.2936V28.7162L93.0735 28.7168Z" fill="#11112B"/>
<path d="M110.309 28.7168V26.7285H110.25C109.16 28.6091 106.936 29.0427 105.385 29.0427C100.776 29.0427 99.085 25.3687 99.085 21.4589C99.085 18.8668 99.714 16.793 100.972 15.2377C102.24 13.6723 103.934 12.9947 106.054 12.9947C109.354 12.9947 110.25 14.8788 110.25 14.8788H110.309V5.93994H113.87V28.717L110.309 28.7168ZM110.339 19.9153C110.339 18.0495 109.17 15.9296 106.704 15.9296C103.883 15.9296 102.787 18.4488 102.787 21.3524C102.787 23.8874 103.821 26.1882 106.508 26.2264C109.142 26.2264 110.317 23.6499 110.339 21.5202V19.9153Z" fill="#11112B"/>
<path d="M131.831 20.9256C131.831 26.2758 128.715 29.174 124.036 29.174C118.948 29.174 116.339 26.048 116.339 21.2609C116.339 15.7843 119.465 12.9357 124.407 12.9357C128.936 12.9357 131.831 15.9065 131.831 20.9256ZM128.176 21.0475C128.176 18.6672 127.354 16.0213 124.214 16.0213C121.203 16.0213 120.033 18.3209 120.033 21.139C120.033 24.2006 121.438 26.1479 124.193 26.1479C127.144 26.1479 128.154 23.8237 128.176 21.0475Z" fill="#11112B"/>
<path d="M150.665 28.7168H146.792L143.832 17.5381L140.656 28.7168H136.898L132.519 13.3182H136.194L139.053 25.2813L142.395 13.3182H145.842L148.822 25.2503L151.61 13.3182H154.977L150.665 28.7168Z" fill="#11112B"/>
<path d="M166 24.4173C166 27.8562 162.961 29.1965 159.915 29.1965C157.931 29.1965 155.955 28.4123 155.955 28.4123V24.7545C155.955 24.7545 157.673 26.2901 160.071 26.3092C161.716 26.3092 162.456 25.7771 162.456 24.764C162.497 23.9512 162.015 23.503 161.438 23.1669C161.042 22.923 160.423 22.6231 159.581 22.2673C158.59 21.8302 157.852 21.4083 157.367 21.0017C156.892 20.5951 156.535 20.1173 156.297 19.5684C156.069 19.0195 155.901 18.4163 155.901 17.6843C155.901 14.9075 158.158 12.9456 161.765 12.9456C164.149 12.9456 165.183 13.5455 165.183 13.5455V17.0203C165.183 17.0203 163.488 15.8186 161.728 15.8077C160.466 15.8077 159.512 16.279 159.496 17.3456C159.487 18.7205 161.127 19.3906 162.107 19.7973C163.533 20.3869 164.577 21.0162 165.162 21.738C165.746 22.4597 166 23.1864 166 24.4173Z" fill="#11112B"/>
<path d="M16.6277 -0.00012207H0V17.0631H16.6277V-0.00012207Z" fill="#11112B"/>
<path d="M35.0799 0H18.4521V17.0632H35.0799V0Z" fill="#11112B"/>
<path d="M16.6277 18.9368H0V36H16.6277V18.9368Z" fill="#11112B"/>
<path d="M35.0799 18.9368H18.4521V36H35.0799V18.9368Z" fill="#11112B"/>
</g>
<defs>
<clipPath id="clip0_33_4586">
<rect width="166" height="36" fill="white"/>
</clipPath>
</defs>
</svg>
