<svg width="166" height="36" viewBox="0 0 166 36" fill="none" xmlns="http://www.w3.org/2000/svg">
<g opacity="0.5" clip-path="url(#clip0_33_2850)">
<path d="M68.7633 28.7169H64.4341L60.2127 12.2275L55.9448 28.7169H51.52L45.7157 7.28394H49.6424L53.828 24.3324L58.3975 7.28394H62.3637L66.6588 24.4335L70.6341 7.28394H74.4256L68.7633 28.7169Z" fill="white"/>
<path d="M79.9757 8.85183C79.9757 9.43127 79.7676 9.9141 79.3516 10.3004C78.9455 10.6867 78.4501 10.8798 77.8657 10.8798C77.2813 10.8798 76.7859 10.6867 76.3798 10.3004C75.9737 9.91412 75.7706 9.43127 75.7706 8.85183C75.7706 8.26225 75.9737 7.76926 76.3798 7.37275C76.7959 6.97631 77.2912 6.77808 77.8657 6.77808C78.47 6.77808 78.9702 6.98142 79.3665 7.38799C79.7726 7.79463 79.9757 8.28259 79.9757 8.85183ZM76.0593 28.7162V13.2703H79.5683V28.7162H76.0593Z" fill="white"/>
<path d="M93.0735 28.717V20.1171C93.0735 17.8638 92.3923 15.92 90.1804 15.92C87.9799 15.92 86.5845 17.9534 86.5845 20.0103V28.7166H83.1521V13.2707H86.5845V15.4555H86.644C87.7831 13.6457 89.4275 13.0103 91.5771 13.0103C93.1917 13.0103 94.4399 13.4181 95.3215 14.4753C96.213 15.5325 96.6044 17.1386 96.6044 19.2937V28.7163L93.0735 28.717Z" fill="white"/>
<path d="M110.309 28.7171V26.7287H110.25C109.16 28.6093 106.936 29.0429 105.385 29.0429C100.776 29.0429 99.0851 25.3689 99.0851 21.4592C99.0851 18.867 99.7141 16.7933 100.972 15.238C102.24 13.6725 103.934 12.9949 106.054 12.9949C109.354 12.9949 110.25 14.8791 110.25 14.8791H110.309V5.94019H113.87V28.7172L110.309 28.7171ZM110.339 19.9155C110.339 18.0497 109.171 15.9298 106.704 15.9298C103.883 15.9298 102.787 18.4491 102.787 21.3527C102.787 23.8877 103.822 26.1884 106.508 26.2266C109.142 26.2266 110.318 23.6502 110.339 21.5204V19.9155Z" fill="white"/>
<path d="M131.831 20.9257C131.831 26.2759 128.715 29.1741 124.036 29.1741C118.947 29.1741 116.339 26.0481 116.339 21.261C116.339 15.7844 119.465 12.9358 124.407 12.9358C128.936 12.9358 131.831 15.9067 131.831 20.9257ZM128.176 21.0476C128.176 18.6673 127.354 16.0214 124.214 16.0214C121.203 16.0214 120.033 18.321 120.033 21.1391C120.033 24.2007 121.438 26.148 124.193 26.148C127.144 26.148 128.154 23.8238 128.176 21.0476Z" fill="white"/>
<path d="M150.665 28.717H146.792L143.832 17.5382L140.656 28.717H136.898L132.519 13.3184H136.194L139.053 25.2814L142.395 13.3184H145.842L148.822 25.2504L151.61 13.3184H154.977L150.665 28.717Z" fill="white"/>
<path d="M166 24.4173C166 27.8562 162.961 29.1965 159.915 29.1965C157.931 29.1965 155.955 28.4123 155.955 28.4123V24.7545C155.955 24.7545 157.673 26.2901 160.071 26.3092C161.716 26.3092 162.456 25.7771 162.456 24.764C162.497 23.9512 162.015 23.503 161.438 23.1669C161.042 22.923 160.423 22.6231 159.581 22.2673C158.59 21.8302 157.852 21.4083 157.367 21.0017C156.892 20.5951 156.535 20.1173 156.297 19.5684C156.069 19.0195 155.901 18.4163 155.901 17.6843C155.901 14.9075 158.158 12.9456 161.765 12.9456C164.149 12.9456 165.183 13.5455 165.183 13.5455V17.0203C165.183 17.0203 163.488 15.8186 161.728 15.8077C160.466 15.8077 159.512 16.279 159.496 17.3456C159.487 18.7205 161.127 19.3906 162.107 19.7973C163.533 20.3869 164.577 21.0162 165.162 21.738C165.746 22.4597 166 23.1864 166 24.4173Z" fill="white"/>
<path d="M16.6277 0H0V17.0632H16.6277V0Z" fill="white"/>
<path d="M35.0797 0H18.452V17.0632H35.0797V0Z" fill="white"/>
<path d="M16.6277 18.937H0V36.0002H16.6277V18.937Z" fill="white"/>
<path d="M35.0797 18.937H18.452V36.0002H35.0797V18.937Z" fill="white"/>
</g>
<defs>
<clipPath id="clip0_33_2850">
<rect width="166" height="36" fill="white"/>
</clipPath>
</defs>
</svg>
