<svg width="40" height="34" viewBox="0 0 40 34" fill="none" xmlns="http://www.w3.org/2000/svg">
<path d="M39.3607 15.4458L24.9152 1.00002C24.5029 0.587668 23.9533 0.361328 23.3673 0.361328C22.7806 0.361328 22.2314 0.587993 21.819 1.00002L20.5075 2.31188C20.0954 2.72359 19.8685 3.2735 19.8685 3.85984C19.8685 4.44585 20.0954 5.0143 20.5075 5.426L28.9347 13.8718H2.16096C0.953813 13.8718 0 14.8168 0 16.0243V17.8789C0 19.0864 0.953813 20.1267 2.16096 20.1267H29.0303L20.5078 28.6196C20.0958 29.032 19.8688 29.5669 19.8688 30.1533C19.8688 30.739 20.0958 31.2817 20.5078 31.6938L21.8193 33.0014C22.2317 33.4137 22.781 33.6385 23.3676 33.6385C23.9536 33.6385 24.5032 33.4108 24.9156 32.9985L39.361 18.553C39.7743 18.1394 40.0016 17.5872 40 17.0002C40.0013 16.4113 39.7743 15.8588 39.3607 15.4458Z" fill="#11112B"/>
</svg>
