<svg width="22" height="40" viewBox="0 0 22 40" fill="none" xmlns="http://www.w3.org/2000/svg">
<path d="M6.39199 22.4957C6.24799 22.4957 3.07999 22.4957 1.63999 22.4957C0.871989 22.4957 0.631989 22.2077 0.631989 21.4877C0.631989 19.5677 0.631989 17.5997 0.631989 15.6797C0.631989 14.9117 0.919989 14.6717 1.63999 14.6717H6.39199C6.39199 14.5277 6.39199 11.7437 6.39199 10.4477C6.39199 8.52766 6.72799 6.70366 7.68799 5.02366C8.69599 3.29566 10.136 2.14366 11.96 1.47166C13.16 1.03966 14.36 0.847656 15.656 0.847656H20.36C21.032 0.847656 21.32 1.13566 21.32 1.80766V7.27966C21.32 7.95166 21.032 8.23966 20.36 8.23966C19.064 8.23966 17.768 8.23966 16.472 8.28766C15.176 8.28766 14.504 8.91166 14.504 10.2557C14.456 11.6957 14.504 13.0877 14.504 14.5757H20.072C20.84 14.5757 21.128 14.8637 21.128 15.6317V21.4397C21.128 22.2077 20.888 22.4477 20.072 22.4477C18.344 22.4477 14.648 22.4477 14.504 22.4477V38.0957C14.504 38.9117 14.264 39.1997 13.4 39.1997C11.384 39.1997 9.41599 39.1997 7.39999 39.1997C6.67999 39.1997 6.39199 38.9117 6.39199 38.1917C6.39199 33.1517 6.39199 22.6397 6.39199 22.4957Z" fill="white"/>
</svg>
