<svg width="61" height="49" viewBox="0 0 61 49" fill="none" xmlns="http://www.w3.org/2000/svg">
<path d="M60.9996 3V15C60.9996 15.7957 60.6836 16.5587 60.121 17.1213C59.5583 17.6839 58.7953 18 57.9996 18C57.204 18 56.4409 17.6839 55.8783 17.1213C55.3157 16.5587 54.9996 15.7957 54.9996 15V10.56L36.2496 31.98C35.9685 32.3 35.6224 32.5565 35.2345 32.7323C34.8465 32.9082 34.4256 32.9995 33.9996 33C33.5876 33.0105 33.1779 32.936 32.7959 32.7812C32.4139 32.6264 32.068 32.3945 31.7796 32.1L25.0596 25.32L6.15963 46.98C5.9056 47.2954 5.59034 47.5561 5.23286 47.7464C4.87537 47.9367 4.48306 48.0526 4.07956 48.0872C3.67607 48.1218 3.26975 48.0744 2.88508 47.9477C2.50042 47.8211 2.14538 47.6178 1.84136 47.3503C1.53734 47.0828 1.29063 46.7565 1.11611 46.391C0.941587 46.0256 0.842861 45.6286 0.825881 45.224C0.8089 44.8193 0.874017 44.4155 1.01731 44.0367C1.1606 43.6579 1.3791 43.3121 1.65963 43.02L22.6596 19.02C22.9298 18.7104 23.2608 18.4597 23.6319 18.2833C24.003 18.1069 24.4064 18.0086 24.8171 17.9945C25.2277 17.9805 25.6369 18.0509 26.0192 18.2015C26.4016 18.3521 26.7489 18.5796 27.0396 18.87L33.9996 25.59L51.0096 6H45.9996C45.204 6 44.4409 5.68393 43.8783 5.12132C43.3157 4.55871 42.9996 3.79565 42.9996 3C42.9996 2.20435 43.3157 1.44129 43.8783 0.87868C44.4409 0.316071 45.204 0 45.9996 0H57.9996C58.7953 0 59.5583 0.316071 60.121 0.87868C60.6836 1.44129 60.9996 2.20435 60.9996 3Z" fill="#11112B"/>
</svg>
