<svg width="1920" height="832" viewBox="0 0 1920 832" fill="none" xmlns="http://www.w3.org/2000/svg">
<g opacity="0.25">
<path d="M-1217.36 812.788C-1238.87 975.77 -1121.07 1134.26 -970.825 1200.83C-820.579 1267.39 -646.98 1257.77 -486.879 1220.74C-326.779 1183.72 -173.528 1121.04 -13.5481 1083.57C146.432 1046.1 319.831 1035.44 470.638 1100.72C653.53 1179.91 773.054 1355.31 925.664 1483.55C1166.2 1685.73 1502.74 1768.04 1809.36 1699.67C1967.42 1664.45 2136.33 1565.66 2156.32 1404.85" stroke="#11112B" stroke-width="0.85" stroke-linecap="round" stroke-linejoin="round"/>
<path d="M-1228.06 774.156C-1249.57 937.139 -1131.77 1095.63 -981.52 1162.2C-831.273 1228.76 -657.675 1219.14 -497.574 1182.11C-337.474 1145.08 -184.223 1082.41 -24.2429 1044.94C135.737 1007.47 309.136 996.809 459.943 1062.09C642.835 1141.28 762.359 1316.68 914.97 1444.92C1155.5 1647.1 1492.04 1729.41 1798.67 1661.04C1956.72 1625.82 2125.64 1527.03 2145.62 1366.21" stroke="#11112B" stroke-width="0.85" stroke-linecap="round" stroke-linejoin="round"/>
<path d="M-1238.75 735.524C-1260.26 898.507 -1142.46 1057 -992.215 1123.56C-841.968 1190.13 -668.369 1180.51 -508.269 1143.48C-348.169 1106.45 -194.918 1043.78 -34.9375 1006.31C125.043 968.837 298.441 958.177 449.249 1023.46C632.14 1102.65 751.665 1278.05 904.275 1406.29C1144.81 1608.46 1481.35 1690.78 1787.97 1622.41C1946.03 1587.18 2114.94 1488.4 2134.93 1327.58" stroke="#11112B" stroke-width="0.85" stroke-linecap="round" stroke-linejoin="round"/>
<path d="M-1249.41 696.893C-1270.92 859.875 -1153.12 1018.37 -1002.87 1084.93C-852.623 1151.5 -679.024 1141.88 -518.924 1104.85C-358.823 1067.82 -205.573 1005.14 -45.5925 967.675C114.388 930.205 287.786 919.546 438.594 984.827C621.486 1064.01 741.01 1239.42 893.62 1367.66C1134.15 1569.83 1470.69 1652.14 1777.32 1583.78C1935.37 1548.55 2104.29 1449.77 2124.27 1288.95" stroke="#11112B" stroke-width="0.85" stroke-linecap="round" stroke-linejoin="round"/>
<path d="M-1260.1 658.302C-1281.61 821.284 -1163.81 979.778 -1013.56 1046.34C-863.317 1112.91 -689.719 1103.29 -529.618 1066.26C-369.518 1029.23 -216.267 966.554 -56.2869 929.084C103.693 891.615 277.092 880.955 427.899 946.236C610.791 1025.42 730.316 1200.83 882.926 1329.07C1123.46 1531.24 1460 1613.55 1766.62 1545.19C1924.68 1509.96 2093.59 1411.18 2113.58 1250.36" stroke="#11112B" stroke-width="0.85" stroke-linecap="round" stroke-linejoin="round"/>
<path d="M-1270.8 619.67C-1292.31 782.652 -1174.51 941.146 -1024.26 1007.71C-874.012 1074.27 -700.413 1064.66 -540.313 1027.63C-380.213 990.598 -226.962 927.922 -66.9814 890.452C92.9987 852.983 266.397 842.323 417.205 907.604C600.096 986.791 719.621 1162.2 872.231 1290.43C1112.76 1492.61 1449.3 1574.92 1755.93 1506.56C1913.98 1471.33 2082.9 1372.55 2102.88 1211.73" stroke="#11112B" stroke-width="0.85" stroke-linecap="round" stroke-linejoin="round"/>
<path d="M-1281.49 581.038C-1303 744.02 -1185.2 902.514 -1034.95 969.078C-884.707 1035.64 -711.108 1026.02 -551.008 988.995C-390.907 951.966 -237.657 889.29 -77.6765 851.82C82.3036 814.351 255.702 803.691 406.51 868.972C589.402 948.159 708.926 1123.56 861.536 1251.8C1102.07 1453.98 1438.61 1536.29 1745.23 1467.92C1903.29 1432.7 2072.2 1333.91 2092.19 1173.1" stroke="#11112B" stroke-width="0.85" stroke-linecap="round" stroke-linejoin="round"/>
<path d="M-1292.15 542.406C-1313.66 705.389 -1195.86 863.883 -1045.61 930.446C-895.362 997.009 -721.763 987.392 -561.663 950.363C-401.562 913.334 -248.311 850.658 -88.3313 813.188C71.6488 775.719 245.047 765.059 395.855 830.34C578.747 909.527 698.271 1084.93 850.881 1213.17C1091.41 1415.35 1427.96 1497.66 1734.58 1429.29C1892.63 1394.07 2061.55 1295.28 2081.53 1134.46" stroke="#11112B" stroke-width="0.85" stroke-linecap="round" stroke-linejoin="round"/>
<path d="M-1302.84 503.774C-1324.35 666.757 -1206.55 825.251 -1056.3 891.814C-906.056 958.378 -732.458 948.76 -572.357 911.731C-412.257 874.702 -259.006 812.026 -99.0259 774.557C60.9543 737.087 234.353 726.427 385.16 791.708C568.052 870.895 687.576 1046.3 840.186 1174.54C1080.72 1376.71 1417.26 1459.03 1723.88 1390.66C1881.94 1355.43 2050.85 1256.65 2070.84 1095.83" stroke="#11112B" stroke-width="0.85" stroke-linecap="round" stroke-linejoin="round"/>
<path d="M-1313.54 465.183C-1335.05 628.165 -1217.24 786.659 -1067 853.222C-916.751 919.786 -743.152 910.168 -583.052 873.139C-422.951 836.111 -269.701 773.434 -109.72 735.965C50.2597 698.495 223.658 687.836 374.466 753.117C557.358 832.304 676.882 1007.71 829.492 1135.95C1070.02 1338.12 1406.57 1420.43 1713.19 1352.07C1871.25 1316.84 2040.16 1218.06 2060.15 1057.24" stroke="#11112B" stroke-width="0.85" stroke-linecap="round" stroke-linejoin="round"/>
<path d="M-1324.23 426.551C-1345.74 589.533 -1227.94 748.027 -1077.69 814.591C-927.446 881.154 -753.847 871.536 -593.747 834.508C-433.647 797.479 -280.396 734.803 -120.416 697.333C39.5646 659.864 212.963 649.204 363.771 714.485C546.663 793.672 666.187 969.077 818.797 1097.32C1059.33 1299.49 1395.87 1381.8 1702.49 1313.44C1860.55 1278.21 2029.46 1179.43 2049.45 1018.61" stroke="#11112B" stroke-width="0.85" stroke-linecap="round" stroke-linejoin="round"/>
<path d="M-1334.89 387.92C-1356.4 550.902 -1238.59 709.396 -1088.35 775.96C-938.1 842.523 -764.502 832.905 -604.401 795.877C-444.301 758.848 -291.05 696.172 -131.07 658.702C28.9103 621.233 202.309 610.573 353.116 675.854C536.008 755.041 655.533 930.446 808.143 1058.68C1048.67 1260.86 1385.22 1343.17 1691.84 1274.81C1849.9 1239.58 2018.81 1140.8 2038.8 979.978" stroke="#11112B" stroke-width="0.85" stroke-linecap="round" stroke-linejoin="round"/>
<path d="M-1345.58 349.288C-1367.09 512.27 -1249.29 670.764 -1099.04 737.328C-948.795 803.891 -775.196 794.274 -615.096 757.245C-454.996 720.216 -301.745 657.54 -141.765 620.07C18.2152 582.601 191.614 571.941 342.422 637.222C525.313 716.409 644.838 891.814 797.448 1020.05C1037.98 1222.23 1374.52 1304.54 1681.14 1236.17C1839.2 1200.95 2008.11 1102.16 2028.1 941.346" stroke="#11112B" stroke-width="0.85" stroke-linecap="round" stroke-linejoin="round"/>
<path d="M-1356.28 310.696C-1377.79 473.679 -1259.98 632.173 -1109.74 698.736C-959.49 765.3 -785.891 755.682 -625.79 718.653C-465.69 681.624 -312.439 618.948 -152.459 581.479C7.52091 544.009 180.92 533.349 331.727 598.63C514.619 677.817 634.143 853.223 786.753 981.461C1027.28 1183.64 1363.83 1265.95 1670.45 1197.58C1828.51 1162.36 1997.42 1063.57 2017.41 902.755" stroke="#11112B" stroke-width="0.85" stroke-linecap="round" stroke-linejoin="round"/>
<path d="M-1366.97 272.064C-1388.48 435.047 -1270.68 593.541 -1120.43 660.104C-970.184 726.668 -796.585 717.05 -636.485 680.021C-476.385 642.993 -323.134 580.316 -163.154 542.847C-3.17367 505.377 170.225 494.717 321.032 559.999C503.924 639.185 623.448 814.591 776.058 942.829C1016.59 1145 1353.13 1227.32 1659.75 1158.95C1817.81 1123.72 1986.72 1024.94 2006.71 864.123" stroke="#11112B" stroke-width="0.85" stroke-linecap="round" stroke-linejoin="round"/>
<path d="M-1377.63 233.433C-1399.13 396.415 -1281.33 554.909 -1131.09 621.472C-980.839 688.036 -807.24 678.418 -647.14 641.389C-487.04 604.361 -333.789 541.684 -173.809 504.215C-13.8287 466.745 159.57 456.086 310.378 521.367C493.269 600.554 612.794 775.959 765.404 904.197C1005.93 1106.37 1342.48 1188.68 1649.1 1120.32C1807.16 1085.09 1976.07 986.309 1996.06 825.491" stroke="#11112B" stroke-width="0.85" stroke-linecap="round" stroke-linejoin="round"/>
<path d="M-1388.32 194.802C-1409.83 357.784 -1292.03 516.278 -1141.78 582.842C-991.534 649.405 -817.935 639.787 -657.835 602.758C-497.735 565.73 -344.484 503.054 -184.504 465.584C-24.5235 428.115 148.875 417.455 299.683 482.736C482.574 561.923 602.099 737.328 754.709 865.566C995.24 1067.74 1331.78 1150.05 1638.4 1081.69C1796.46 1046.46 1965.37 947.678 1985.36 786.86" stroke="#11112B" stroke-width="0.85" stroke-linecap="round" stroke-linejoin="round"/>
<path d="M-1399.01 156.21C-1420.52 319.192 -1302.72 477.686 -1152.48 544.25C-1002.23 610.813 -828.63 601.195 -668.529 564.167C-508.429 527.138 -355.178 464.462 -195.198 426.992C-35.2181 389.523 138.18 378.863 288.988 444.144C471.88 523.331 591.404 698.736 744.014 826.974C984.545 1029.15 1321.09 1111.46 1627.71 1043.1C1785.77 1007.87 1954.68 909.087 1974.67 748.268" stroke="#11112B" stroke-width="0.85" stroke-linecap="round" stroke-linejoin="round"/>
<path d="M-1409.71 117.578C-1431.22 280.56 -1313.42 439.054 -1163.17 505.618C-1012.92 572.181 -839.324 562.564 -679.224 525.535C-519.124 488.506 -365.873 425.83 -205.893 388.36C-45.9124 350.891 127.486 340.231 278.294 405.512C461.185 484.699 580.71 660.104 733.32 788.342C973.851 990.517 1310.39 1072.83 1617.02 1004.46C1775.07 969.238 1943.99 870.455 1963.97 709.636" stroke="#11112B" stroke-width="0.85" stroke-linecap="round" stroke-linejoin="round"/>
<path d="M-1420.36 78.9463C-1441.87 241.929 -1324.07 400.423 -1173.82 466.986C-1023.58 533.55 -849.979 523.932 -689.879 486.903C-529.779 449.874 -376.528 387.198 -216.548 349.729C-56.5675 312.259 116.831 301.599 267.639 366.88C450.53 446.067 570.055 621.473 722.665 749.711C963.196 951.886 1299.74 1034.2 1606.36 965.831C1764.42 930.606 1933.33 831.823 1953.32 671.005" stroke="#11112B" stroke-width="0.85" stroke-linecap="round" stroke-linejoin="round"/>
<path d="M-1431.06 40.3145C-1452.57 203.297 -1334.77 361.791 -1184.52 428.354C-1034.27 494.918 -860.674 485.3 -700.573 448.271C-540.473 411.243 -387.222 348.566 -227.242 311.097C-67.262 273.627 106.136 262.967 256.944 328.249C439.836 407.435 559.36 582.841 711.97 711.079C952.501 913.254 1289.04 995.566 1595.67 927.2C1753.72 891.974 1922.64 793.191 1942.62 632.373" stroke="#11112B" stroke-width="0.85" stroke-linecap="round" stroke-linejoin="round"/>
<path d="M-1441.75 1.68359C-1463.26 164.666 -1345.46 323.16 -1195.21 389.723C-1044.97 456.287 -871.369 446.669 -711.269 409.64C-551.168 372.612 -397.917 309.935 -237.937 272.466C-77.9569 234.996 95.4416 224.337 246.249 289.618C429.141 368.805 548.665 544.21 701.275 672.448C941.806 874.623 1278.35 956.935 1584.97 888.569C1743.03 853.343 1911.94 754.56 1931.93 593.742" stroke="#11112B" stroke-width="0.85" stroke-linecap="round" stroke-linejoin="round"/>
</g>
</svg>
