<svg width="1920" height="1905" viewBox="0 0 1920 1905" fill="none" xmlns="http://www.w3.org/2000/svg">
<g opacity="0.25" clip-path="url(#clip0_8_496)">
<path d="M-783.253 770.689C-778.162 906.386 -660.218 1019.09 -528.601 1052.44C-396.984 1085.79 -256.914 1053.87 -131.643 1001.5C-6.37173 949.126 109.762 876.822 234.874 824.109C359.986 771.396 499.748 738.651 631.644 770.878C791.604 809.975 913.297 936.214 1055.4 1019.45C1279.37 1150.7 1564.92 1171.02 1805.19 1072.79C1929.05 1022.17 2052.93 918.296 2046.9 784.572" stroke="white" stroke-width="0.85" stroke-linecap="round" stroke-linejoin="round"/>
<path d="M-797.319 740.749C-792.228 876.446 -674.284 989.154 -542.666 1022.5C-411.049 1055.85 -270.98 1023.93 -145.708 971.557C-20.4372 919.186 95.6966 846.882 220.809 794.169C345.921 741.456 485.683 708.711 617.579 740.938C777.538 780.035 899.231 906.275 1041.33 989.515C1265.3 1120.76 1550.85 1141.08 1791.12 1042.85C1914.98 992.235 2038.86 888.356 2032.83 754.632" stroke="white" stroke-width="0.85" stroke-linecap="round" stroke-linejoin="round"/>
<path d="M-811.39 710.777C-806.298 846.474 -688.354 959.182 -556.737 992.531C-425.12 1025.88 -285.05 993.955 -159.779 941.585C-34.5079 889.214 81.6259 816.909 206.738 764.196C331.85 711.483 471.612 678.738 603.508 710.965C763.467 750.063 885.16 876.302 1027.26 959.543C1251.23 1090.79 1536.78 1111.1 1777.05 1012.88C1900.91 962.262 2024.79 858.383 2018.76 724.66" stroke="white" stroke-width="0.85" stroke-linecap="round" stroke-linejoin="round"/>
<path d="M-825.428 680.799C-820.337 816.496 -702.393 929.204 -570.776 962.553C-439.158 995.902 -299.089 963.977 -173.818 911.607C-48.5465 859.236 67.5872 786.932 192.699 734.218C317.812 681.505 457.573 648.761 589.47 680.987C749.429 720.085 871.122 846.324 1013.22 929.565C1237.19 1060.81 1522.74 1081.13 1763.01 982.903C1886.87 932.284 2010.75 828.405 2004.72 694.682" stroke="white" stroke-width="0.85" stroke-linecap="round" stroke-linejoin="round"/>
<path d="M-839.499 650.826C-834.408 786.523 -716.464 899.231 -584.847 932.58C-453.229 965.929 -313.16 934.005 -187.889 881.634C-62.6175 829.263 53.5163 756.959 178.629 704.246C303.741 651.533 443.503 618.788 575.399 651.015C735.358 690.112 857.051 816.352 999.15 899.592C1223.12 1030.84 1508.67 1051.15 1748.94 952.931C1872.8 902.312 1996.68 798.433 1990.65 664.709" stroke="white" stroke-width="0.85" stroke-linecap="round" stroke-linejoin="round"/>
<path d="M-853.565 620.886C-848.473 756.584 -730.529 869.292 -598.912 902.641C-467.295 935.989 -327.225 904.065 -201.954 851.694C-76.6827 799.324 39.4511 727.019 164.563 674.306C289.676 621.593 429.437 588.848 561.333 621.075C721.293 660.172 842.986 786.412 985.084 869.653C1209.06 1000.9 1494.61 1021.21 1734.88 922.991C1858.73 872.372 1982.62 768.493 1976.58 634.769" stroke="white" stroke-width="0.85" stroke-linecap="round" stroke-linejoin="round"/>
<path d="M-867.636 590.914C-862.544 726.611 -744.6 839.319 -612.983 872.668C-481.366 906.017 -341.296 874.093 -216.025 821.722C-90.7538 769.351 25.3802 697.047 150.492 644.334C275.605 591.621 415.366 558.876 547.262 591.103C707.222 630.2 828.915 756.44 971.014 839.68C1194.99 970.924 1480.53 991.242 1720.81 893.018C1844.66 842.399 1968.54 738.521 1962.51 604.797" stroke="white" stroke-width="0.85" stroke-linecap="round" stroke-linejoin="round"/>
<path d="M-881.674 560.936C-876.583 696.633 -758.639 809.341 -627.021 842.69C-495.404 876.039 -355.335 844.115 -230.064 791.744C-104.792 739.373 11.3415 667.069 136.454 614.356C261.566 561.643 401.328 528.898 533.224 561.125C693.183 600.222 814.876 726.462 956.975 809.702C1180.95 940.946 1466.5 961.264 1706.77 863.04C1830.62 812.422 1954.51 708.543 1948.48 574.819" stroke="white" stroke-width="0.85" stroke-linecap="round" stroke-linejoin="round"/>
<path d="M-895.745 530.964C-890.654 666.661 -772.709 779.369 -641.092 812.718C-509.475 846.067 -369.406 814.142 -244.134 761.772C-118.863 709.401 -2.72922 637.097 122.383 584.383C247.495 531.67 387.257 498.926 519.153 531.152C679.112 570.25 800.805 696.489 942.904 779.73C1166.88 910.973 1452.42 931.291 1692.7 833.068C1816.55 782.449 1940.44 678.57 1934.4 544.847" stroke="white" stroke-width="0.85" stroke-linecap="round" stroke-linejoin="round"/>
<path d="M-909.816 500.991C-904.725 636.688 -786.781 749.396 -655.163 782.745C-523.546 816.094 -383.477 784.17 -258.206 731.799C-132.934 679.428 -16.8003 607.124 108.312 554.411C233.424 501.698 373.186 468.953 505.082 501.18C665.041 540.277 786.734 666.517 928.833 749.757C1152.81 881.001 1438.35 901.319 1678.63 803.096C1802.48 752.477 1926.36 648.598 1920.33 514.874" stroke="white" stroke-width="0.85" stroke-linecap="round" stroke-linejoin="round"/>
</g>
<defs>
<clipPath id="clip0_8_496">
<rect width="2977.92" height="1424.86" fill="white" transform="matrix(-0.985794 0.167962 0.167962 0.985794 2022.1 0.0323181)"/>
</clipPath>
</defs>
</svg>
