<svg width="64" height="54" viewBox="0 0 64 54" fill="none" xmlns="http://www.w3.org/2000/svg">
<path d="M62.9771 24.5135L39.8644 1.40033C39.2046 0.740561 38.3253 0.378418 37.3877 0.378418C36.449 0.378418 35.5702 0.741082 34.9104 1.40033L32.812 3.4993C32.1527 4.15803 31.7895 5.03789 31.7895 5.97603C31.7895 6.91365 32.1527 7.82317 32.812 8.4819L46.2956 21.9952H3.45753C1.5261 21.9952 0 23.5072 0 25.4392L0 28.4065C0 30.3385 1.5261 32.003 3.45753 32.003H46.4485L32.8125 45.5917C32.1532 46.2515 31.7901 47.1074 31.7901 48.0455C31.7901 48.9826 32.1532 49.8511 32.8125 50.5103L34.9109 52.6025C35.5707 53.2623 36.4495 53.6218 37.3882 53.6218C38.3258 53.6218 39.2051 53.2576 39.8649 52.5978L62.9776 29.4852C63.6389 28.8233 64.0026 27.9398 64 27.0006C64.0021 26.0583 63.6389 25.1743 62.9771 24.5135Z" fill="white"/>
</svg>
