<svg width="180" height="140" viewBox="0 0 180 140" fill="none" xmlns="http://www.w3.org/2000/svg">
<g clip-path="url(#clip0_33_2366)">
<path d="M90 140C79.9444 140 72.6502 132.61 64.9392 124.778C58.9371 118.689 52.7371 112.396 45.0677 109.804C31.0212 105.051 15.7451 101.78 0.969088 98.6225L0.0104218 98.4188L37.8882 0L38.0861 0.101859C45.8805 4.1536 53.9875 7.69604 62.1883 10.6613C64.7204 11.578 66.8149 13.2417 68.2424 15.4713C73.7027 23.9822 79.8611 32.0517 86.5509 39.4535C87.4679 40.4721 88.6975 41.0267 90 41.0267C91.3025 41.0267 92.5321 40.4721 93.4491 39.4535C100.139 32.0631 106.297 23.9935 111.758 15.4713C113.196 13.2304 115.29 11.5667 117.812 10.6613C126.002 7.70736 134.109 4.1536 141.914 0.101859L142.112 0L142.195 0.215036L180 98.4074L179.75 98.464C177.603 98.9281 175.405 99.3808 173.164 99.8448C158.315 102.923 141.487 106.409 128.305 113.222C122.886 116.018 118.218 120.85 113.706 125.536C106.839 132.643 99.7325 140 90 140ZM0.583537 98.0792L1.04203 98.1811C15.8284 101.339 31.115 104.598 45.1824 109.374C52.9455 112 59.1872 118.338 65.2206 124.449C72.869 132.213 80.1007 139.547 90 139.547C99.8993 139.547 106.297 132.576 113.425 125.208C117.968 120.511 122.657 115.644 128.138 112.815C141.372 105.979 158.222 102.493 173.091 99.4034C175.238 98.962 177.353 98.5206 179.427 98.0792L141.903 0.611156C134.151 4.62894 126.096 8.14875 117.958 11.0914C115.509 11.9741 113.487 13.5812 112.112 15.7316C106.641 24.2652 100.462 32.3573 93.7617 39.7704C92.7614 40.8682 91.438 41.4794 90.0104 41.4794C88.5828 41.4794 87.2595 40.8682 86.2591 39.7704C79.5589 32.3573 73.3796 24.2652 67.909 15.7316C66.5231 13.5812 64.5016 11.9741 62.0632 11.0914C53.925 8.14875 45.8597 4.62894 38.1174 0.611156L0.583537 98.0792Z" fill="#92DEED"/>
<path d="M90 125.581C80.4238 125.581 73.6506 118.202 66.471 110.382C60.8857 104.293 55.1025 98 47.8395 95.3856C34.4911 90.5869 19.2463 87.1237 5.80411 84.0566L5.88747 83.6152C19.3505 86.6823 34.6058 90.1568 47.975 94.9555C55.3421 97.6039 61.1567 103.942 66.7732 110.065C73.8902 117.817 80.6009 125.129 90.0104 125.129C99.4199 125.129 105.38 118.168 111.997 110.8C116.228 106.092 120.604 101.214 125.773 98.4074C138.256 91.6055 154.345 88.0291 168.538 84.8714C170.434 84.4527 172.31 84.0339 174.133 83.6152L174.217 84.0566C172.393 84.4753 170.518 84.8941 168.621 85.3128C154.46 88.4705 138.402 92.0356 125.96 98.8035C120.854 101.588 116.499 106.432 112.299 111.117C105.912 118.236 99.3053 125.581 90.0104 125.581H90Z" fill="#92DEED"/>
<path d="M90 114.501C81.8305 114.501 74.8697 105.9 68.1278 97.5699C63.0948 91.3452 58.3327 85.4713 53.2581 83.2191C44.307 79.2466 31.636 76.2813 20.4654 73.6669C16.9642 72.8521 13.661 72.0711 10.6808 71.3128L10.7746 70.8715C13.7548 71.6297 17.058 72.3994 20.5488 73.2142C31.7402 75.8286 44.4217 78.8052 53.404 82.789C58.5724 85.0752 63.3553 90.9943 68.43 97.2644C75.099 105.515 82.0076 114.037 89.9896 114.037C98.3675 114.037 105.005 105.617 111.435 97.4794C116.405 91.1867 121.094 85.2449 126.565 82.789C135.953 78.5788 147.416 75.9531 158.503 73.4066C162.265 72.5465 165.818 71.7316 169.194 70.8715L169.288 71.3128C165.901 72.173 162.348 72.9879 158.586 73.848C147.52 76.3832 136.078 79.0089 126.721 83.2078C121.334 85.6184 116.676 91.5263 111.747 97.7736C105.266 105.99 98.555 114.49 89.9896 114.49L90 114.501Z" fill="#92DEED"/>
<path d="M88.6349 100.977C80.0486 100.977 75.0677 93.6427 70.2327 86.5465C66.8357 81.5554 63.3136 76.3945 58.562 73.6783C50.2779 68.9588 36.2417 65.4163 24.967 62.5756C21.3511 61.6589 17.9333 60.7987 15.0469 59.9838L15.1511 59.5424C18.0271 60.3573 21.4449 61.2175 25.0608 62.1229C36.3564 64.9749 50.4237 68.5174 58.7496 73.2595C63.5846 76.0097 67.1379 81.2159 70.5557 86.2522C75.8076 93.9709 80.778 101.248 89.9791 100.433C98.6488 99.6637 103.296 93.3032 108.215 86.5578C111.851 81.5667 115.623 76.4058 121.25 73.2482C130.316 68.1552 142.81 65.0768 153.835 62.3606C157.753 61.3985 161.452 60.4818 164.849 59.5311L164.953 59.9725C161.546 60.9345 157.846 61.8399 153.928 62.8133C142.935 65.5182 130.462 68.5966 121.448 73.6669C115.905 76.7793 112.164 81.9062 108.548 86.8521C103.567 93.6653 98.8676 100.105 90.0208 100.897C89.5519 100.943 89.083 100.954 88.6349 100.954V100.977Z" fill="#92DEED"/>
<path d="M88.6975 90.8246C80.4863 90.8246 75.4845 83.2644 70.6287 75.9531C67.4922 71.2223 64.2515 66.3218 60.1771 63.5263C53.4456 58.9087 38.6905 55.072 27.9159 52.2652C24.3939 51.3484 21.3512 50.5562 18.9545 49.8432L19.0691 49.4018C21.4658 50.1148 24.4981 50.907 28.0201 51.8238C38.826 54.6306 53.6228 58.4786 60.4064 63.1415C64.5537 65.9822 67.8152 70.9168 70.9726 75.6815C76.2348 83.6265 81.2157 91.1528 89.9791 90.304C98.3466 89.5117 103.234 82.7551 108.413 75.6136C111.716 71.0526 115.134 66.3331 119.583 63.1415C126.971 57.8335 140.028 54.6532 150.511 52.1067C154.335 51.1787 157.94 50.2959 160.92 49.4131L161.035 49.8545C158.044 50.7486 154.429 51.6201 150.604 52.5481C140.153 55.0946 127.138 58.2522 119.812 63.5263C115.415 66.6839 112.018 71.3695 108.736 75.9079C103.494 83.1286 98.555 89.9531 90.0104 90.768C89.5623 90.8133 89.1247 90.8359 88.687 90.8359L88.6975 90.8246Z" fill="#92DEED"/>
<path d="M90 83.8868C84.123 83.8868 76.4224 74.595 69.6388 66.401C65.4915 61.3985 61.5735 56.6677 58.5828 54.6645C50.3925 49.1754 40.3994 46.1762 30.7503 43.2676C27.8743 42.4074 25.1546 41.5813 22.4661 40.6985L22.5912 40.2684C25.2796 41.1512 27.9889 41.9661 30.8649 42.8262C40.5557 45.7348 50.5696 48.7567 58.8121 54.2797C61.8444 56.3169 65.7832 61.0703 69.9514 66.0954C76.6829 74.2215 84.3105 83.4228 90.0104 83.4228C96.4085 83.4228 101.921 74.9798 106.777 67.5214C109.538 63.2773 112.154 59.2821 114.613 57.3694C123.189 50.692 137.673 46.3121 149.323 42.7809C152.23 41.8981 154.991 41.0606 157.43 40.2571L157.555 40.6872C155.106 41.4907 152.355 42.3282 149.437 43.211C137.829 46.7308 123.387 51.1108 114.863 57.7316C112.466 59.599 109.871 63.5715 107.131 67.7817C102.213 75.3193 96.6377 83.8755 90.0208 83.8755L90 83.8868Z" fill="#92DEED"/>
<path d="M90 75.6023C84.4043 75.6023 77.0267 66.2652 70.5141 58.0372C66.5752 53.0461 62.8447 48.3379 60.0521 46.3799C52.2681 40.9361 42.6919 37.8917 33.4387 34.9604C30.7294 34.1002 28.1764 33.2967 25.6443 32.4139L25.7694 31.9838C28.2911 32.8553 30.844 33.6588 33.5533 34.519C42.8378 37.4616 52.4453 40.5061 60.2813 45.9951C63.1261 47.9871 66.867 52.7179 70.8371 57.7316C77.2873 65.8917 84.6023 75.1382 90 75.1382C96.148 75.1382 101.421 66.6273 106.079 59.1124C108.684 54.9022 111.143 50.9297 113.435 49.0849C121.594 42.4753 135.505 38.0275 146.686 34.4511C149.396 33.5796 151.959 32.7647 154.231 31.9838L154.356 32.4139C152.074 33.2061 149.51 34.021 146.801 34.8925C135.651 38.4576 121.782 42.9054 113.685 49.4584C111.455 51.2579 109.017 55.2078 106.433 59.3727C101.723 66.9782 96.3772 75.5909 90.0104 75.5909L90 75.6023Z" fill="#92DEED"/>
<path d="M88.6558 64.8731C81.6325 64.8731 76.4849 57.7203 71.0663 50.1827C67.1379 44.7162 63.0636 39.0574 58.1556 36.1827C52.2265 32.7082 45.099 30.4107 38.2112 28.1924C34.8142 27.0946 31.6152 26.0647 28.5412 24.8989L28.6766 24.4689C31.7402 25.6346 34.9392 26.6645 38.3258 27.7623C45.2345 29.9919 52.3724 32.3007 58.3432 35.7866C63.3345 38.7065 67.4297 44.3993 71.3894 49.9111C77.0789 57.8335 82.4557 65.2918 89.9687 64.3411C97.2004 63.4018 101.389 57.7542 105.828 51.7672C108.559 48.0889 111.372 44.2975 115.061 41.3209C123.73 34.3266 133.421 30.886 143.685 27.2417C146.176 26.3589 148.76 25.4422 151.303 24.4689L151.438 24.8989C148.885 25.8723 146.301 26.789 143.81 27.6718C133.578 31.3048 123.918 34.7453 115.3 41.6831C111.653 44.6257 108.85 48.3945 106.141 52.0501C101.65 58.1051 97.3984 63.8319 90 64.7825C89.5311 64.8391 89.083 64.8731 88.6349 64.8731H88.6558Z" fill="#92DEED"/>
<path d="M88.6766 57.9919C81.9139 57.9919 77.0268 50.8391 71.8583 43.3015C68.107 37.8238 64.2306 32.1649 59.5207 29.2902C53.8729 25.8496 47.0476 23.5408 40.4411 21.2999C37.19 20.2021 34.1264 19.1609 31.1879 17.9951L31.3338 17.5651C34.2619 18.7195 37.3255 19.7607 40.5662 20.8585C47.1935 23.0994 54.05 25.4196 59.7291 28.8828C64.512 31.8027 68.4196 37.4955 72.1917 43.0186C77.6207 50.941 82.7475 58.422 89.9687 57.4373C96.9608 56.4753 100.941 50.8391 105.162 44.8634C107.756 41.1851 110.434 37.3937 113.977 34.4171C122.272 27.4567 131.577 23.9935 141.435 20.3153C143.8 19.4325 146.249 18.5271 148.666 17.5651L148.812 17.9951C146.384 18.9571 143.935 19.8739 141.57 20.7567C131.754 24.4123 122.48 27.8755 114.238 34.7906C110.736 37.7219 108.079 41.502 105.495 45.1463C101.223 51.19 97.19 56.9054 90.0313 57.89C89.5728 57.958 89.1247 57.9806 88.6871 57.9806L88.6766 57.9919Z" fill="#92DEED"/>
<path d="M88.6975 51.688C82.1848 51.688 77.5165 44.5352 72.5773 36.9976C68.9927 31.5198 65.2935 25.8496 60.7711 22.9863C55.3942 19.5796 48.819 17.2482 42.4731 15.0073C39.3574 13.8981 36.4189 12.8569 33.6158 11.7025L33.7617 11.2838C36.5544 12.4382 39.4929 13.4794 42.6086 14.5772C48.9753 16.8294 55.5714 19.1722 60.9899 22.6015C65.5853 25.5101 69.3157 31.2142 72.9212 36.7373C78.1105 44.671 83.008 52.152 89.9792 51.1447C96.7523 50.1601 100.545 44.5352 104.557 38.5707C107.027 34.8925 109.59 31.1011 112.987 28.1358C120.938 21.2094 129.889 17.7122 139.361 14.0226C141.612 13.1512 143.935 12.2344 146.238 11.2838L146.384 11.7025C144.071 12.6645 141.747 13.5699 139.496 14.4414C130.056 18.1196 121.136 21.6055 113.248 28.4867C109.892 31.4179 107.35 35.1867 104.891 38.8424C100.827 44.886 96.9816 50.5901 90.0313 51.5974C89.5832 51.6653 89.1351 51.6993 88.6975 51.6993V51.688Z" fill="#92DEED"/>
<path d="M90 46.4592C88.3536 46.4592 86.7072 45.7914 85.4568 44.4446C78.496 36.9636 72.0771 28.7696 66.3668 20.1002C65.3664 18.5836 63.9805 17.4858 62.3446 16.9313C53.3414 13.8755 44.4217 10.152 35.8354 5.87387L36.0125 5.46643C44.5884 9.74452 53.4873 13.4567 62.48 16.5012C64.1994 17.0784 65.6582 18.2328 66.7107 19.8399C72.4001 28.4866 78.8086 36.658 85.7485 44.1164C88.0931 46.6402 91.9069 46.6289 94.2411 44.1164C101.181 36.658 107.589 28.4866 113.279 19.8399C114.331 18.2441 115.801 17.0897 117.52 16.5012C126.502 13.4454 135.412 9.7332 143.987 5.46643L144.165 5.87387C135.578 10.1633 126.659 13.8755 117.655 16.9313C116.019 17.4858 114.634 18.5836 113.633 20.1002C107.923 28.7696 101.504 36.9636 94.5432 44.4446C93.2928 45.7914 91.6464 46.4592 90 46.4592Z" fill="#92DEED"/>
<path d="M163.203 101.848C158.065 85.5279 152.97 69.0833 148.051 53.1819C143.133 37.2805 138.048 20.8359 132.9 4.51578L133.296 4.36865C138.433 20.6888 143.529 37.1334 148.447 53.0348C153.366 68.9362 158.451 85.3808 163.598 101.701L163.203 101.848Z" fill="#92DEED"/>
<path d="M146.322 106.047C142.32 89.7268 138.392 73.7349 134.463 57.7429C130.535 41.751 126.606 25.7704 122.605 9.43898L123.011 9.32581C127.013 25.6459 130.941 41.6379 134.87 57.6298C138.798 73.6217 142.727 89.6023 146.728 105.934L146.322 106.047Z" fill="#92DEED"/>
<path d="M130.91 111.615C128.055 95.3064 125.043 78.7939 122.126 62.8359C119.198 46.8327 116.176 30.2862 113.321 13.9434L113.727 13.8642C116.582 30.207 119.604 46.7421 122.532 62.7454C125.45 78.7146 128.461 95.2272 131.316 111.536L130.91 111.615Z" fill="#92DEED"/>
<path d="M114.498 124.268C112.789 107.948 110.986 91.4131 109.236 75.4325C107.496 59.4519 105.693 42.9167 103.974 26.5966L104.39 26.5513C106.099 42.8715 107.902 59.4066 109.653 75.3872C111.393 91.3678 113.196 107.903 114.915 124.223L114.498 124.268Z" fill="#92DEED"/>
<path d="M97.8986 138.416C97.3359 122.163 96.7628 105.108 96.2209 88.6063C95.6686 71.9693 95.0955 54.7664 94.5224 38.3783L94.9392 38.3557C95.5123 54.7437 96.0854 71.9467 96.6377 88.5837C97.19 105.074 97.7527 122.129 98.3154 138.382L97.8986 138.404V138.416Z" fill="#92DEED"/>
<path d="M82.4974 138.2L82.0806 138.178C82.6537 121.858 83.1122 104.779 83.5603 88.2668C84.0083 71.7543 84.4668 54.6758 85.0399 38.3557L85.4567 38.3783C84.8836 54.6985 84.4251 71.7769 83.9771 88.2894C83.529 104.802 83.0601 121.88 82.4974 138.2Z" fill="#92DEED"/>
<path d="M65.6999 124.913L65.2831 124.857C67.0024 108.503 68.6905 91.7186 70.3369 75.5004C71.9729 59.3387 73.661 42.6224 75.3699 26.325L75.7867 26.3702C74.0778 42.6564 72.3897 59.3726 70.7537 75.5343C69.1177 91.7639 67.4192 108.537 65.6999 124.902V124.913Z" fill="#92DEED"/>
<path d="M49.4964 111.615L49.09 111.536C51.9451 95.2159 54.7169 78.5788 57.3949 62.4851C60.0729 46.3913 62.8447 29.7543 65.6999 13.4341L66.1063 13.5134C63.2511 29.8335 60.4793 46.4705 57.8013 62.5643C55.1233 78.6581 52.3515 95.2951 49.4964 111.615Z" fill="#92DEED"/>
<path d="M34.0743 106.047L33.6679 105.934C37.6693 89.6023 41.4623 73.2256 45.1407 57.3921C48.8086 41.5699 52.6016 25.2159 56.603 8.90704L57.0094 9.02022C53.0184 25.329 49.2254 41.6831 45.5575 57.5053C41.8895 73.3387 38.0861 89.7154 34.0847 106.047H34.0743Z" fill="#92DEED"/>
<path d="M16.7975 101.848L16.4015 101.701C21.5387 85.3808 26.603 69.3096 31.6568 53.2498C36.7107 37.19 41.7749 21.1302 46.9121 4.79871L47.3081 4.94584C42.1709 21.266 37.1066 37.3371 32.0528 53.3969C26.9989 69.4568 21.9347 85.5166 16.7975 101.848Z" fill="#92DEED"/>
</g>
<defs>
<clipPath id="clip0_33_2366">
<rect width="180" height="140" fill="white"/>
</clipPath>
</defs>
</svg>
